<?xml version="1.0" standalone="no"?>
<!DOCTYPE svg PUBLIC "-//W3C//DTD SVG 20010904//EN"
 "http://www.w3.org/TR/2001/REC-SVG-20010904/DTD/svg10.dtd">
<svg version="1.0" xmlns="http://www.w3.org/2000/svg"
 width="275.000000pt" height="275.000000pt" viewBox="0 0 275.000000 275.000000"
 preserveAspectRatio="xMidYMid meet">
<metadata>
Created by potrace 1.11, written by Peter Selinger 2001-2013
</metadata>
<g transform="translate(0.000000,275.000000) scale(0.100000,-0.100000)"
fill="#000000" stroke="none">
<path d="M1248 2714 c-3 -3 -23 -7 -44 -10 -47 -5 -88 -12 -129 -20 -16 -3
-34 -7 -40 -8 -5 -1 -16 -5 -23 -10 -7 -4 -16 -6 -18 -3 -7 7 -197 -68 -253
-99 -24 -13 -49 -24 -56 -24 -7 0 -15 -7 -19 -15 -3 -8 -10 -15 -16 -15 -37 0
-284 -218 -350 -309 -14 -19 -32 -42 -40 -51 -8 -8 -22 -29 -30 -45 -8 -17
-18 -32 -21 -35 -14 -11 -107 -203 -107 -220 0 -3 -6 -21 -14 -40 -8 -19 -21
-60 -28 -90 -7 -30 -15 -59 -18 -64 -6 -10 -14 -75 -16 -118 -1 -16 -4 -28 -7
-28 -5 0 -3 -267 2 -296 2 -10 120 -42 179 -49 8 -1 44 -6 80 -10 163 -21 371
-6 465 35 11 5 52 18 90 30 39 12 77 24 85 27 8 4 17 7 20 7 3 1 11 5 18 10 7
4 16 5 19 2 3 -3 22 3 42 13 20 11 39 19 44 20 8 1 14 3 25 6 4 1 22 6 39 10
18 4 38 14 44 21 6 8 18 14 25 14 8 0 14 5 14 10 0 6 9 10 21 10 11 0 18 4 15
9 -3 4 6 13 20 20 39 17 143 98 197 153 26 27 47 46 47 43 0 -6 84 92 138 161
18 23 32 47 32 53 0 6 4 11 8 11 8 0 39 48 42 65 1 6 8 17 15 25 17 19 79 153
107 230 35 97 63 208 74 295 10 77 12 132 6 141 -10 13 -109 59 -152 69 -8 3
-42 12 -75 21 -83 22 -94 25 -145 30 -46 5 -85 11 -85 14 0 6 -188 3 -192 -3
-3 -4 -10 -3 -17 2 -7 6 -15 8 -18 5z"/>
<path d="M2396 2199 c32 -156 38 -217 38 -394 0 -188 -5 -237 -40 -394 -21
-95 -20 -91 -54 -191 -31 -91 -127 -288 -178 -367 -64 -98 -105 -153 -113
-153 -5 0 -9 -6 -9 -13 0 -7 -14 -25 -31 -40 -17 -15 -28 -27 -25 -27 8 0
-101 -107 -158 -155 -26 -22 -53 -45 -59 -51 -26 -22 -175 -122 -222 -148 -27
-16 -56 -33 -64 -40 -8 -6 -15 -10 -15 -8 -1 2 -32 -11 -71 -28 -80 -36 -253
-95 -308 -105 -20 -4 -40 -12 -44 -18 -3 -6 -1 -7 5 -3 7 4 12 2 12 -5 0 -8 5
-7 17 2 9 8 14 9 11 4 -7 -11 0 -13 65 -17 20 -2 37 -6 37 -9 0 -8 324 -4 370
5 19 4 62 14 95 22 33 9 71 18 84 20 13 3 32 9 42 15 10 5 22 8 26 7 11 -3
227 103 231 113 2 5 8 9 14 9 6 0 26 11 44 25 18 14 35 25 38 25 6 0 44 31 72
57 7 7 18 13 24 13 6 0 8 5 5 10 -3 6 -2 10 4 10 11 0 161 150 161 161 0 3 11
19 25 35 37 42 45 53 45 58 0 3 13 24 28 48 28 42 89 163 102 203 4 11 12 31
18 45 26 58 63 215 66 273 0 15 4 27 8 27 8 0 3 305 -6 340 -3 14 -9 41 -12
60 -3 19 -11 43 -16 54 -7 14 -7 17 2 11 9 -5 8 -1 -1 16 -7 13 -12 27 -11 31
1 4 -5 22 -12 40 -8 18 -15 38 -16 43 -3 11 -17 51 -27 75 -3 8 -5 18 -5 23 1
4 -3 7 -9 7 -5 0 -7 5 -4 10 3 6 1 10 -4 10 -6 0 -11 9 -11 20 0 11 -4 20 -10
20 -5 0 -9 3 -8 8 2 4 -8 25 -22 47 -13 22 -30 52 -38 66 -7 15 -22 36 -33 47
-10 12 -19 24 -19 27 0 3 -9 15 -20 27 l-19 21 5 -24z"/>
<path d="M2117 2080 c3 -11 0 -20 -6 -20 -6 0 -10 -3 -9 -7 6 -25 -126 -313
-144 -313 -4 0 -8 -5 -8 -11 0 -15 -91 -149 -101 -149 -5 0 -9 -7 -9 -15 0 -8
-4 -15 -10 -15 -5 0 -10 -5 -10 -11 0 -6 -18 -28 -40 -50 -21 -21 -37 -39 -35
-39 3 0 -21 -25 -51 -55 -31 -30 -60 -55 -66 -55 -5 0 -6 -4 -3 -10 3 -5 2
-10 -4 -10 -6 0 -24 -13 -41 -30 -17 -16 -34 -30 -38 -30 -4 0 -21 -14 -39
-30 -18 -17 -36 -30 -41 -30 -5 0 -17 -9 -27 -20 -10 -11 -22 -17 -26 -14 -5
3 -9 0 -9 -5 0 -6 -7 -11 -15 -11 -8 0 -15 -4 -15 -9 0 -4 -22 -19 -50 -32
-27 -13 -50 -27 -50 -31 0 -5 -8 -8 -18 -8 -11 0 -27 -9 -37 -20 -10 -11 -20
-18 -24 -16 -3 2 -31 -6 -61 -19 -30 -13 -58 -21 -62 -19 -5 3 -8 0 -8 -6 0
-6 -5 -8 -10 -5 -5 3 -10 1 -10 -5 0 -6 -6 -10 -12 -9 -7 1 -25 -3 -41 -9 -15
-7 -38 -14 -50 -17 -12 -2 -49 -12 -82 -20 -33 -9 -73 -18 -90 -20 -68 -10
-90 -14 -90 -15 0 -12 -337 -19 -352 -7 -9 6 -13 6 -13 -1 0 -6 -6 -9 -12 -7
-18 6 -76 15 -118 20 -19 2 -35 4 -35 5 0 1 -12 3 -28 5 -31 4 -35 -9 -11 -43
8 -12 12 -27 9 -32 -3 -6 -1 -10 4 -10 6 0 11 -9 11 -20 0 -11 5 -20 11 -20 5
0 7 -4 4 -10 -3 -5 -1 -10 4 -10 6 0 11 -5 11 -11 0 -22 90 -162 135 -210 8
-9 15 -19 15 -24 0 -12 180 -189 199 -194 27 -9 365 -9 376 -1 6 5 13 8 18 8
8 0 79 10 122 18 15 3 36 9 46 15 10 5 22 8 26 8 4 -1 17 1 28 6 11 4 49 19
85 33 36 14 67 28 70 31 3 3 10 6 15 6 15 1 89 39 97 50 5 7 8 7 8 0 0 -5 4
-5 8 2 4 6 13 13 21 15 8 2 25 13 39 26 14 12 31 22 38 22 8 0 14 5 14 12 0 6
3 8 7 5 3 -4 13 2 20 13 8 11 18 18 22 16 4 -3 13 4 21 14 8 10 17 17 22 14 4
-3 8 2 8 10 0 9 4 16 9 16 5 0 16 6 23 13 7 6 28 24 46 40 19 15 31 27 29 27
-3 0 22 27 54 60 32 33 55 60 52 60 -4 0 3 9 14 20 12 11 30 33 39 50 10 16
22 30 27 30 4 0 5 5 2 10 -3 6 -1 10 4 10 6 0 11 5 11 10 0 6 9 21 20 32 11
12 19 27 17 32 -2 6 6 19 17 29 12 10 14 15 6 11 -12 -6 -12 -4 1 12 14 16 27
42 71 139 5 12 10 27 12 35 2 8 8 28 14 43 7 16 12 34 12 41 0 7 3 16 8 20 4
4 7 15 8 24 0 9 6 35 12 57 17 60 25 105 26 152 0 24 4 43 8 43 4 0 6 27 5 60
-1 34 2 60 8 60 6 0 3 5 -5 10 -12 8 -12 10 -1 10 11 0 11 3 0 17 -12 14 -12
16 0 8 11 -6 13 -4 7 11 -5 10 -9 44 -11 74 -2 30 -4 55 -5 55 -1 0 -3 17 -4
37 -1 20 -5 40 -8 43 -4 4 -4 13 -1 21 3 8 0 14 -7 14 -6 0 -8 5 -5 10 3 6 0
10 -8 10 -10 0 -13 -7 -10 -20z"/>
</g>
</svg>
